<mxfile host="Electron" modified="2023-05-29T09:06:15.739Z" agent="Mozilla/5.0 (Windows NT 10.0; Win64; x64) AppleWebKit/537.36 (KHTML, like Gecko) draw.io/21.2.8 Chrome/112.0.5615.165 Electron/24.2.0 Safari/537.36" etag="0QR8L-ULaCskAfgTVtl0" version="21.2.8" type="device">
  <diagram name="Pagina-1" id="O4UE8CB-qa2ZFcrG_HcA">
    <mxGraphModel dx="1276" dy="-563" grid="1" gridSize="10" guides="1" tooltips="1" connect="1" arrows="1" fold="1" page="1" pageScale="1" pageWidth="827" pageHeight="1169" math="0" shadow="0">
      <root>
        <mxCell id="0" />
        <mxCell id="1" parent="0" />
        <mxCell id="WpjQjEKUPqsohSNB6F_r-1" value="caso di estensione del passo 4" style="text;html=1;align=center;verticalAlign=middle;resizable=0;points=[];autosize=1;strokeColor=none;fillColor=none;" parent="1" vertex="1">
          <mxGeometry x="260" y="1520" width="190" height="30" as="geometry" />
        </mxCell>
        <mxCell id="WpjQjEKUPqsohSNB6F_r-2" value="Chef" style="shape=umlActor;verticalLabelPosition=bottom;verticalAlign=top;html=1;outlineConnect=0;" parent="1" vertex="1">
          <mxGeometry x="155" y="1560" width="30" height="60" as="geometry" />
        </mxCell>
        <mxCell id="WpjQjEKUPqsohSNB6F_r-3" value="Sistema" style="verticalAlign=top;align=center;spacingTop=8;spacingLeft=2;spacingRight=12;shape=cube;size=10;direction=south;fontStyle=4;html=1;whiteSpace=wrap;" parent="1" vertex="1">
          <mxGeometry x="475" y="1590" width="120" height="45" as="geometry" />
        </mxCell>
        <mxCell id="WpjQjEKUPqsohSNB6F_r-4" value="" style="endArrow=classic;html=1;rounded=0;" parent="1" edge="1">
          <mxGeometry width="50" height="50" relative="1" as="geometry">
            <mxPoint x="175" y="1705" as="sourcePoint" />
            <mxPoint x="530" y="1705" as="targetPoint" />
          </mxGeometry>
        </mxCell>
        <mxCell id="WpjQjEKUPqsohSNB6F_r-5" value="1. createFoglioRiepilogativo(servizio, evento)" style="edgeLabel;html=1;align=center;verticalAlign=middle;resizable=0;points=[];" parent="WpjQjEKUPqsohSNB6F_r-4" connectable="0" vertex="1">
          <mxGeometry x="0.1105" y="3" relative="1" as="geometry">
            <mxPoint x="-20" y="3" as="offset" />
          </mxGeometry>
        </mxCell>
        <mxCell id="WpjQjEKUPqsohSNB6F_r-6" value="" style="html=1;labelBackgroundColor=#ffffff;startArrow=none;startFill=0;startSize=6;endArrow=classic;endFill=1;endSize=6;jettySize=auto;orthogonalLoop=1;strokeWidth=1;dashed=1;fontSize=14;rounded=0;" parent="1" edge="1">
          <mxGeometry width="60" height="60" relative="1" as="geometry">
            <mxPoint x="530" y="1725" as="sourcePoint" />
            <mxPoint x="175" y="1725" as="targetPoint" />
          </mxGeometry>
        </mxCell>
        <mxCell id="WpjQjEKUPqsohSNB6F_r-7" value="crea il foglio relativo al servizio" style="edgeLabel;html=1;align=center;verticalAlign=middle;resizable=0;points=[];" parent="WpjQjEKUPqsohSNB6F_r-6" connectable="0" vertex="1">
          <mxGeometry x="-0.1099" relative="1" as="geometry">
            <mxPoint x="-20" as="offset" />
          </mxGeometry>
        </mxCell>
        <mxCell id="WpjQjEKUPqsohSNB6F_r-9" value="" style="endArrow=classic;html=1;rounded=0;" parent="1" edge="1">
          <mxGeometry width="50" height="50" relative="1" as="geometry">
            <mxPoint x="179.74" y="1805" as="sourcePoint" />
            <mxPoint x="530" y="1805" as="targetPoint" />
          </mxGeometry>
        </mxCell>
        <mxCell id="WpjQjEKUPqsohSNB6F_r-10" value="2 addCompito(Preparato di cucina)" style="edgeLabel;html=1;align=center;verticalAlign=middle;resizable=0;points=[];" parent="WpjQjEKUPqsohSNB6F_r-9" connectable="0" vertex="1">
          <mxGeometry x="0.1105" y="3" relative="1" as="geometry">
            <mxPoint x="-20" y="3" as="offset" />
          </mxGeometry>
        </mxCell>
        <mxCell id="WpjQjEKUPqsohSNB6F_r-11" value="" style="html=1;labelBackgroundColor=#ffffff;startArrow=none;startFill=0;startSize=6;endArrow=classic;endFill=1;endSize=6;jettySize=auto;orthogonalLoop=1;strokeWidth=1;dashed=1;fontSize=14;rounded=0;" parent="1" edge="1">
          <mxGeometry width="60" height="60" relative="1" as="geometry">
            <mxPoint x="530" y="1825" as="sourcePoint" />
            <mxPoint x="179.74" y="1825" as="targetPoint" />
          </mxGeometry>
        </mxCell>
        <mxCell id="WpjQjEKUPqsohSNB6F_r-12" value="&lt;font style=&quot;font-size: 9px;&quot;&gt;aggiunta compito al foglio&lt;/font&gt;" style="edgeLabel;html=1;align=center;verticalAlign=middle;resizable=0;points=[];" parent="WpjQjEKUPqsohSNB6F_r-11" connectable="0" vertex="1">
          <mxGeometry x="-0.1099" relative="1" as="geometry">
            <mxPoint x="-20" as="offset" />
          </mxGeometry>
        </mxCell>
        <mxCell id="WpjQjEKUPqsohSNB6F_r-13" value="LOOP" style="shape=umlFrame;whiteSpace=wrap;html=1;pointerEvents=0;fillColor=#CCCCCC;strokeColor=#B3B3B3;width=35;height=17;strokeWidth=2;" parent="1" vertex="1">
          <mxGeometry x="160" y="1775" width="385" height="130" as="geometry" />
        </mxCell>
        <mxCell id="WpjQjEKUPqsohSNB6F_r-14" value="" style="endArrow=classic;html=1;rounded=0;" parent="1" edge="1">
          <mxGeometry width="50" height="50" relative="1" as="geometry">
            <mxPoint x="175.74" y="1864.0900000000001" as="sourcePoint" />
            <mxPoint x="530" y="1864" as="targetPoint" />
          </mxGeometry>
        </mxCell>
        <mxCell id="WpjQjEKUPqsohSNB6F_r-15" value="3 ordinaCompito(Compito,posizione)" style="edgeLabel;html=1;align=center;verticalAlign=middle;resizable=0;points=[];" parent="WpjQjEKUPqsohSNB6F_r-14" connectable="0" vertex="1">
          <mxGeometry x="0.1105" y="3" relative="1" as="geometry">
            <mxPoint x="-20" y="3" as="offset" />
          </mxGeometry>
        </mxCell>
        <mxCell id="WpjQjEKUPqsohSNB6F_r-16" value="" style="html=1;labelBackgroundColor=#ffffff;startArrow=none;startFill=0;startSize=6;endArrow=classic;endFill=1;endSize=6;jettySize=auto;orthogonalLoop=1;strokeWidth=1;dashed=1;fontSize=14;rounded=0;" parent="1" edge="1">
          <mxGeometry width="60" height="60" relative="1" as="geometry">
            <mxPoint x="530" y="1884" as="sourcePoint" />
            <mxPoint x="175" y="1884.0900000000001" as="targetPoint" />
          </mxGeometry>
        </mxCell>
        <mxCell id="WpjQjEKUPqsohSNB6F_r-17" value="compito riordinato nell&#39;elenco, ok" style="edgeLabel;html=1;align=center;verticalAlign=middle;resizable=0;points=[];" parent="WpjQjEKUPqsohSNB6F_r-16" connectable="0" vertex="1">
          <mxGeometry x="-0.1099" relative="1" as="geometry">
            <mxPoint x="-20" as="offset" />
          </mxGeometry>
        </mxCell>
        <mxCell id="WpjQjEKUPqsohSNB6F_r-18" value="" style="endArrow=classic;html=1;rounded=0;" parent="1" edge="1">
          <mxGeometry width="50" height="50" relative="1" as="geometry">
            <mxPoint x="171.74" y="1955" as="sourcePoint" />
            <mxPoint x="531.74" y="1955" as="targetPoint" />
          </mxGeometry>
        </mxCell>
        <mxCell id="WpjQjEKUPqsohSNB6F_r-19" value="&lt;font style=&quot;font-size: 10px;&quot;&gt;4 assegnaCompito(Compito,Cuoco,turno?,quantitÃ ?,tempostimato?)&lt;/font&gt;" style="edgeLabel;html=1;align=center;verticalAlign=middle;resizable=0;points=[];" parent="WpjQjEKUPqsohSNB6F_r-18" connectable="0" vertex="1">
          <mxGeometry x="0.1105" y="3" relative="1" as="geometry">
            <mxPoint x="-20" y="3" as="offset" />
          </mxGeometry>
        </mxCell>
        <mxCell id="WpjQjEKUPqsohSNB6F_r-20" value="" style="html=1;labelBackgroundColor=#ffffff;startArrow=none;startFill=0;startSize=6;endArrow=classic;endFill=1;endSize=6;jettySize=auto;orthogonalLoop=1;strokeWidth=1;dashed=1;fontSize=14;rounded=0;" parent="1" edge="1">
          <mxGeometry width="60" height="60" relative="1" as="geometry">
            <mxPoint x="536.74" y="1990" as="sourcePoint" />
            <mxPoint x="176.74" y="1990" as="targetPoint" />
          </mxGeometry>
        </mxCell>
        <mxCell id="WpjQjEKUPqsohSNB6F_r-21" value="assegna il cuoco allo svolgimento del compito, ok" style="edgeLabel;html=1;align=center;verticalAlign=middle;resizable=0;points=[];" parent="WpjQjEKUPqsohSNB6F_r-20" connectable="0" vertex="1">
          <mxGeometry x="-0.1099" relative="1" as="geometry">
            <mxPoint x="-20" as="offset" />
          </mxGeometry>
        </mxCell>
        <mxCell id="WpjQjEKUPqsohSNB6F_r-22" value="LOOP" style="shape=umlFrame;whiteSpace=wrap;html=1;pointerEvents=0;fillColor=#dae8fc;strokeColor=#6c8ebf;width=33;height=20;strokeWidth=2;" parent="1" vertex="1">
          <mxGeometry x="161.74" y="1915" width="383.26" height="635" as="geometry" />
        </mxCell>
        <mxCell id="WpjQjEKUPqsohSNB6F_r-23" value="LOOP" style="shape=umlFrame;whiteSpace=wrap;html=1;pointerEvents=0;fillColor=#CCCCCC;strokeColor=#B3B3B3;width=35;height=20;strokeWidth=2;" parent="1" vertex="1">
          <mxGeometry x="125" y="1765" width="470" height="805" as="geometry" />
        </mxCell>
        <mxCell id="WpjQjEKUPqsohSNB6F_r-24" value="" style="endArrow=classic;html=1;rounded=0;" parent="1" edge="1">
          <mxGeometry width="50" height="50" relative="1" as="geometry">
            <mxPoint x="175" y="2444.6" as="sourcePoint" />
            <mxPoint x="535" y="2444.6" as="targetPoint" />
          </mxGeometry>
        </mxCell>
        <mxCell id="WpjQjEKUPqsohSNB6F_r-25" value="5 setTurnoSaturo()" style="edgeLabel;html=1;align=center;verticalAlign=middle;resizable=0;points=[];" parent="WpjQjEKUPqsohSNB6F_r-24" connectable="0" vertex="1">
          <mxGeometry x="0.1105" y="3" relative="1" as="geometry">
            <mxPoint x="-20" y="3" as="offset" />
          </mxGeometry>
        </mxCell>
        <mxCell id="WpjQjEKUPqsohSNB6F_r-26" value="&lt;font style=&quot;font-size: 10px;&quot;&gt;il Turno verrÃ  segnato come saturo&lt;/font&gt;" style="html=1;labelBackgroundColor=#ffffff;startArrow=none;startFill=0;startSize=6;endArrow=classic;endFill=1;endSize=6;jettySize=auto;orthogonalLoop=1;strokeWidth=1;dashed=1;fontSize=14;rounded=0;" parent="1" edge="1">
          <mxGeometry width="60" height="60" relative="1" as="geometry">
            <mxPoint x="543.26" y="2470" as="sourcePoint" />
            <mxPoint x="173.26" y="2470" as="targetPoint" />
          </mxGeometry>
        </mxCell>
        <mxCell id="WpjQjEKUPqsohSNB6F_r-27" value="" style="endArrow=classic;html=1;rounded=0;" parent="1" edge="1">
          <mxGeometry width="50" height="50" relative="1" as="geometry">
            <mxPoint x="175" y="2500" as="sourcePoint" />
            <mxPoint x="535" y="2500" as="targetPoint" />
          </mxGeometry>
        </mxCell>
        <mxCell id="WpjQjEKUPqsohSNB6F_r-28" value="6 addNota(Preparazione.Nome,descrizione)" style="edgeLabel;html=1;align=center;verticalAlign=middle;resizable=0;points=[];" parent="WpjQjEKUPqsohSNB6F_r-27" connectable="0" vertex="1">
          <mxGeometry x="0.1105" y="3" relative="1" as="geometry">
            <mxPoint x="-20" y="3" as="offset" />
          </mxGeometry>
        </mxCell>
        <mxCell id="WpjQjEKUPqsohSNB6F_r-29" value="" style="html=1;labelBackgroundColor=#ffffff;startArrow=none;startFill=0;startSize=6;endArrow=classic;endFill=1;endSize=6;jettySize=auto;orthogonalLoop=1;strokeWidth=1;dashed=1;fontSize=14;rounded=0;" parent="1" edge="1">
          <mxGeometry width="60" height="60" relative="1" as="geometry">
            <mxPoint x="535" y="2520" as="sourcePoint" />
            <mxPoint x="175" y="2520" as="targetPoint" />
          </mxGeometry>
        </mxCell>
        <mxCell id="WpjQjEKUPqsohSNB6F_r-30" value="aggiunge la nota alla preparazione" style="edgeLabel;html=1;align=center;verticalAlign=middle;resizable=0;points=[];" parent="WpjQjEKUPqsohSNB6F_r-29" connectable="0" vertex="1">
          <mxGeometry x="-0.1099" relative="1" as="geometry">
            <mxPoint x="-20" as="offset" />
          </mxGeometry>
        </mxCell>
        <mxCell id="WpjQjEKUPqsohSNB6F_r-31" value="OPT" style="shape=umlFrame;whiteSpace=wrap;html=1;pointerEvents=0;fillColor=#CCCCCC;strokeColor=#B3B3B3;width=40;height=15;" parent="1" vertex="1">
          <mxGeometry x="170" y="2480" width="370" height="60" as="geometry" />
        </mxCell>
        <mxCell id="WpjQjEKUPqsohSNB6F_r-32" value="" style="endArrow=classic;html=1;rounded=0;" parent="1" edge="1">
          <mxGeometry width="50" height="50" relative="1" as="geometry">
            <mxPoint x="176.74000000000012" y="2158" as="sourcePoint" />
            <mxPoint x="536.7400000000001" y="2158" as="targetPoint" />
          </mxGeometry>
        </mxCell>
        <mxCell id="WpjQjEKUPqsohSNB6F_r-33" value="&lt;font style=&quot;font-size: 11px;&quot;&gt;4.a modificaAssegnamentoCompitoTurno(Compito,turno)&lt;/font&gt;" style="edgeLabel;html=1;align=center;verticalAlign=middle;resizable=0;points=[];" parent="WpjQjEKUPqsohSNB6F_r-32" connectable="0" vertex="1">
          <mxGeometry x="0.1105" y="3" relative="1" as="geometry">
            <mxPoint x="-20" y="3" as="offset" />
          </mxGeometry>
        </mxCell>
        <mxCell id="WpjQjEKUPqsohSNB6F_r-34" value="" style="html=1;labelBackgroundColor=#ffffff;startArrow=none;startFill=0;startSize=6;endArrow=classic;endFill=1;endSize=6;jettySize=auto;orthogonalLoop=1;strokeWidth=1;dashed=1;fontSize=14;rounded=0;" parent="1" edge="1">
          <mxGeometry width="60" height="60" relative="1" as="geometry">
            <mxPoint x="535.0000000000001" y="2188" as="sourcePoint" />
            <mxPoint x="175.0000000000001" y="2188" as="targetPoint" />
          </mxGeometry>
        </mxCell>
        <mxCell id="WpjQjEKUPqsohSNB6F_r-35" value="ok" style="edgeLabel;html=1;align=center;verticalAlign=middle;resizable=0;points=[];" parent="WpjQjEKUPqsohSNB6F_r-34" connectable="0" vertex="1">
          <mxGeometry x="-0.1099" relative="1" as="geometry">
            <mxPoint x="-20" as="offset" />
          </mxGeometry>
        </mxCell>
        <mxCell id="WpjQjEKUPqsohSNB6F_r-36" value="OPT" style="shape=umlFrame;whiteSpace=wrap;html=1;pointerEvents=0;fillColor=#CCCCCC;strokeColor=#B3B3B3;width=40;height=15;" parent="1" vertex="1">
          <mxGeometry x="170" y="2420" width="370" height="60" as="geometry" />
        </mxCell>
        <mxCell id="WpjQjEKUPqsohSNB6F_r-37" value="ALT" style="shape=umlFrame;whiteSpace=wrap;html=1;pointerEvents=0;fillColor=#FF0505;strokeColor=#FF0505;width=30;height=15;swimlaneFillColor=none;fillStyle=auto;strokeWidth=3;shadow=0;gradientColor=none;" parent="1" vertex="1">
          <mxGeometry x="170" y="1940" width="370" height="450" as="geometry" />
        </mxCell>
        <mxCell id="WpjQjEKUPqsohSNB6F_r-38" value="ALT" style="shape=umlFrame;whiteSpace=wrap;html=1;pointerEvents=0;fillColor=#ffe6cc;strokeColor=#d79b00;width=30;height=15;swimlaneFillColor=none;fillStyle=auto;strokeWidth=3;shadow=0;" parent="1" vertex="1">
          <mxGeometry x="170" y="1970" width="370" height="170" as="geometry" />
        </mxCell>
        <mxCell id="WpjQjEKUPqsohSNB6F_r-39" value="" style="endArrow=none;dashed=1;html=1;dashPattern=1 3;strokeWidth=2;rounded=0;exitX=0.002;exitY=0.353;exitDx=0;exitDy=0;exitPerimeter=0;fillColor=#e51400;strokeColor=#B20000;entryX=0.998;entryY=0.341;entryDx=0;entryDy=0;entryPerimeter=0;" parent="1" edge="1">
          <mxGeometry width="50" height="50" relative="1" as="geometry">
            <mxPoint x="180.69999999999956" y="2001.9460000000001" as="sourcePoint" />
            <mxPoint x="529.2999999999997" y="2000.0020000000002" as="targetPoint" />
          </mxGeometry>
        </mxCell>
        <mxCell id="WpjQjEKUPqsohSNB6F_r-40" value="" style="html=1;labelBackgroundColor=#ffffff;startArrow=none;startFill=0;startSize=6;endArrow=classic;endFill=1;endSize=6;jettySize=auto;orthogonalLoop=1;strokeWidth=1;dashed=1;fontSize=14;rounded=0;" parent="1" edge="1">
          <mxGeometry width="60" height="60" relative="1" as="geometry">
            <mxPoint x="536.74" y="2020" as="sourcePoint" />
            <mxPoint x="176.74" y="2020" as="targetPoint" />
          </mxGeometry>
        </mxCell>
        <mxCell id="WpjQjEKUPqsohSNB6F_r-41" value="4.a.1 cuoco non disponibile in quel turno, errore" style="edgeLabel;html=1;align=center;verticalAlign=middle;resizable=0;points=[];" parent="WpjQjEKUPqsohSNB6F_r-40" connectable="0" vertex="1">
          <mxGeometry x="-0.1099" relative="1" as="geometry">
            <mxPoint x="-20" as="offset" />
          </mxGeometry>
        </mxCell>
        <mxCell id="WpjQjEKUPqsohSNB6F_r-42" value="" style="endArrow=none;dashed=1;html=1;dashPattern=1 3;strokeWidth=2;rounded=0;exitX=0.002;exitY=0.353;exitDx=0;exitDy=0;exitPerimeter=0;fillColor=#e51400;strokeColor=#B20000;entryX=0.998;entryY=0.341;entryDx=0;entryDy=0;entryPerimeter=0;" parent="1" edge="1">
          <mxGeometry width="50" height="50" relative="1" as="geometry">
            <mxPoint x="180.69999999999956" y="2035.976" as="sourcePoint" />
            <mxPoint x="529.2999999999997" y="2034.0320000000002" as="targetPoint" />
          </mxGeometry>
        </mxCell>
        <mxCell id="WpjQjEKUPqsohSNB6F_r-43" value="" style="html=1;labelBackgroundColor=#ffffff;startArrow=none;startFill=0;startSize=6;endArrow=classic;endFill=1;endSize=6;jettySize=auto;orthogonalLoop=1;strokeWidth=1;dashed=1;fontSize=14;rounded=0;" parent="1" edge="1">
          <mxGeometry width="60" height="60" relative="1" as="geometry">
            <mxPoint x="535" y="2050" as="sourcePoint" />
            <mxPoint x="175" y="2050" as="targetPoint" />
          </mxGeometry>
        </mxCell>
        <mxCell id="WpjQjEKUPqsohSNB6F_r-44" value="4.a.2 turno segnato come saturo&amp;nbsp;" style="edgeLabel;html=1;align=center;verticalAlign=middle;resizable=0;points=[];" parent="WpjQjEKUPqsohSNB6F_r-43" connectable="0" vertex="1">
          <mxGeometry x="-0.1099" relative="1" as="geometry">
            <mxPoint x="-20" as="offset" />
          </mxGeometry>
        </mxCell>
        <mxCell id="WpjQjEKUPqsohSNB6F_r-45" value="" style="endArrow=none;dashed=1;html=1;dashPattern=1 3;strokeWidth=2;rounded=0;exitX=0.002;exitY=0.353;exitDx=0;exitDy=0;exitPerimeter=0;fillColor=#e51400;strokeColor=#B20000;entryX=0.998;entryY=0.341;entryDx=0;entryDy=0;entryPerimeter=0;" parent="1" edge="1">
          <mxGeometry width="50" height="50" relative="1" as="geometry">
            <mxPoint x="178.19999999999956" y="2071.946" as="sourcePoint" />
            <mxPoint x="526.7999999999997" y="2070.0020000000004" as="targetPoint" />
          </mxGeometry>
        </mxCell>
        <mxCell id="WpjQjEKUPqsohSNB6F_r-46" value="" style="html=1;labelBackgroundColor=#ffffff;startArrow=none;startFill=0;startSize=6;endArrow=classic;endFill=1;endSize=6;jettySize=auto;orthogonalLoop=1;strokeWidth=1;dashed=1;fontSize=14;rounded=0;" parent="1" edge="1">
          <mxGeometry width="60" height="60" relative="1" as="geometry">
            <mxPoint x="535" y="2090" as="sourcePoint" />
            <mxPoint x="175" y="2090" as="targetPoint" />
          </mxGeometry>
        </mxCell>
        <mxCell id="WpjQjEKUPqsohSNB6F_r-47" value="4.a.3 il turno si Ã¨ giÃ  concluso, errore" style="edgeLabel;html=1;align=center;verticalAlign=middle;resizable=0;points=[];" parent="WpjQjEKUPqsohSNB6F_r-46" connectable="0" vertex="1">
          <mxGeometry x="-0.1099" relative="1" as="geometry">
            <mxPoint x="-20" as="offset" />
          </mxGeometry>
        </mxCell>
        <mxCell id="WpjQjEKUPqsohSNB6F_r-48" value="ALT" style="shape=umlFrame;whiteSpace=wrap;html=1;pointerEvents=0;fillColor=#ffe6cc;strokeColor=#d79b00;width=30;height=15;swimlaneFillColor=none;fillStyle=auto;strokeWidth=3;shadow=0;" parent="1" vertex="1">
          <mxGeometry x="170" y="2178" width="370" height="122" as="geometry" />
        </mxCell>
        <mxCell id="WpjQjEKUPqsohSNB6F_r-49" value="" style="endArrow=none;dashed=1;html=1;dashPattern=1 3;strokeWidth=2;rounded=0;exitX=0.002;exitY=0.353;exitDx=0;exitDy=0;exitPerimeter=0;fillColor=#e51400;strokeColor=#B20000;entryX=0.998;entryY=0.341;entryDx=0;entryDy=0;entryPerimeter=0;" parent="1" edge="1">
          <mxGeometry width="50" height="50" relative="1" as="geometry">
            <mxPoint x="181.94999999999956" y="2219.946" as="sourcePoint" />
            <mxPoint x="530.5499999999997" y="2218.0020000000004" as="targetPoint" />
          </mxGeometry>
        </mxCell>
        <mxCell id="WpjQjEKUPqsohSNB6F_r-50" value="" style="endArrow=none;dashed=1;html=1;dashPattern=1 3;strokeWidth=2;rounded=0;exitX=0.002;exitY=0.353;exitDx=0;exitDy=0;exitPerimeter=0;fillColor=#e51400;strokeColor=#B20000;entryX=0.998;entryY=0.341;entryDx=0;entryDy=0;entryPerimeter=0;" parent="1" edge="1">
          <mxGeometry width="50" height="50" relative="1" as="geometry">
            <mxPoint x="182.99999999999955" y="2244.976" as="sourcePoint" />
            <mxPoint x="531.5999999999997" y="2243.032" as="targetPoint" />
          </mxGeometry>
        </mxCell>
        <mxCell id="WpjQjEKUPqsohSNB6F_r-51" value="" style="html=1;labelBackgroundColor=#ffffff;startArrow=none;startFill=0;startSize=6;endArrow=classic;endFill=1;endSize=6;jettySize=auto;orthogonalLoop=1;strokeWidth=1;dashed=1;fontSize=14;rounded=0;" parent="1" edge="1">
          <mxGeometry width="60" height="60" relative="1" as="geometry">
            <mxPoint x="540" y="2228" as="sourcePoint" />
            <mxPoint x="180" y="2228" as="targetPoint" />
          </mxGeometry>
        </mxCell>
        <mxCell id="WpjQjEKUPqsohSNB6F_r-52" value="4.a.1.b il turno in cui viene effettuato il compito Ã¨ saturo" style="edgeLabel;html=1;align=center;verticalAlign=middle;resizable=0;points=[];" parent="WpjQjEKUPqsohSNB6F_r-51" connectable="0" vertex="1">
          <mxGeometry x="-0.1099" relative="1" as="geometry">
            <mxPoint x="-20" as="offset" />
          </mxGeometry>
        </mxCell>
        <mxCell id="WpjQjEKUPqsohSNB6F_r-53" value="" style="endArrow=none;dashed=1;html=1;dashPattern=1 3;strokeWidth=2;rounded=0;exitX=0.002;exitY=0.353;exitDx=0;exitDy=0;exitPerimeter=0;fillColor=#e51400;strokeColor=#B20000;entryX=0.998;entryY=0.341;entryDx=0;entryDy=0;entryPerimeter=0;" parent="1" edge="1">
          <mxGeometry width="50" height="50" relative="1" as="geometry">
            <mxPoint x="171.9499999999996" y="2108.696" as="sourcePoint" />
            <mxPoint x="520.5499999999997" y="2106.7520000000004" as="targetPoint" />
          </mxGeometry>
        </mxCell>
        <mxCell id="WpjQjEKUPqsohSNB6F_r-54" value="" style="html=1;labelBackgroundColor=#ffffff;startArrow=none;startFill=0;startSize=6;endArrow=classic;endFill=1;endSize=6;jettySize=auto;orthogonalLoop=1;strokeWidth=1;dashed=1;fontSize=14;rounded=0;" parent="1" edge="1">
          <mxGeometry width="60" height="60" relative="1" as="geometry">
            <mxPoint x="533.05" y="2120.75" as="sourcePoint" />
            <mxPoint x="173.05" y="2120.75" as="targetPoint" />
          </mxGeometry>
        </mxCell>
        <mxCell id="WpjQjEKUPqsohSNB6F_r-55" value="4.a.4.al tempo stimato sforerebbe l&#39;orario del turno, errore" style="edgeLabel;html=1;align=center;verticalAlign=middle;resizable=0;points=[];" parent="WpjQjEKUPqsohSNB6F_r-54" connectable="0" vertex="1">
          <mxGeometry x="-0.1099" relative="1" as="geometry">
            <mxPoint x="-20" as="offset" />
          </mxGeometry>
        </mxCell>
        <mxCell id="WpjQjEKUPqsohSNB6F_r-56" value="" style="html=1;labelBackgroundColor=#ffffff;startArrow=none;startFill=0;startSize=6;endArrow=classic;endFill=1;endSize=6;jettySize=auto;orthogonalLoop=1;strokeWidth=1;dashed=1;fontSize=14;rounded=0;" parent="1" edge="1">
          <mxGeometry width="60" height="60" relative="1" as="geometry">
            <mxPoint x="540" y="2255" as="sourcePoint" />
            <mxPoint x="180" y="2255" as="targetPoint" />
          </mxGeometry>
        </mxCell>
        <mxCell id="WpjQjEKUPqsohSNB6F_r-57" value="4.a.1.c il tempo stimato del compito sfora il nuovo turno" style="edgeLabel;html=1;align=center;verticalAlign=middle;resizable=0;points=[];" parent="WpjQjEKUPqsohSNB6F_r-56" connectable="0" vertex="1">
          <mxGeometry x="-0.1099" relative="1" as="geometry">
            <mxPoint x="-20" as="offset" />
          </mxGeometry>
        </mxCell>
        <mxCell id="WpjQjEKUPqsohSNB6F_r-58" value="" style="endArrow=classic;html=1;rounded=0;" parent="1" edge="1">
          <mxGeometry width="50" height="50" relative="1" as="geometry">
            <mxPoint x="176.74000000000012" y="2320" as="sourcePoint" />
            <mxPoint x="536.7400000000001" y="2320" as="targetPoint" />
          </mxGeometry>
        </mxCell>
        <mxCell id="WpjQjEKUPqsohSNB6F_r-59" value="4.b eliminaAssegnamentoCompito(Compito, cuoco)" style="edgeLabel;html=1;align=center;verticalAlign=middle;resizable=0;points=[];" parent="WpjQjEKUPqsohSNB6F_r-58" connectable="0" vertex="1">
          <mxGeometry x="0.1105" y="3" relative="1" as="geometry">
            <mxPoint x="-20" y="3" as="offset" />
          </mxGeometry>
        </mxCell>
        <mxCell id="WpjQjEKUPqsohSNB6F_r-60" value="" style="html=1;labelBackgroundColor=#ffffff;startArrow=none;startFill=0;startSize=6;endArrow=classic;endFill=1;endSize=6;jettySize=auto;orthogonalLoop=1;strokeWidth=1;dashed=1;fontSize=14;rounded=0;" parent="1" edge="1">
          <mxGeometry width="60" height="60" relative="1" as="geometry">
            <mxPoint x="532.5000000000001" y="2350" as="sourcePoint" />
            <mxPoint x="172.5000000000001" y="2350" as="targetPoint" />
          </mxGeometry>
        </mxCell>
        <mxCell id="WpjQjEKUPqsohSNB6F_r-61" value="ok" style="edgeLabel;html=1;align=center;verticalAlign=middle;resizable=0;points=[];" parent="WpjQjEKUPqsohSNB6F_r-60" connectable="0" vertex="1">
          <mxGeometry x="-0.1099" relative="1" as="geometry">
            <mxPoint x="-20" as="offset" />
          </mxGeometry>
        </mxCell>
        <mxCell id="WpjQjEKUPqsohSNB6F_r-62" value="ALT" style="shape=umlFrame;whiteSpace=wrap;html=1;pointerEvents=0;fillColor=#ffe6cc;strokeColor=#d79b00;width=30;height=15;swimlaneFillColor=none;fillStyle=auto;strokeWidth=3;shadow=0;" parent="1" vertex="1">
          <mxGeometry x="170" y="2330" width="370" height="50" as="geometry" />
        </mxCell>
        <mxCell id="WpjQjEKUPqsohSNB6F_r-63" value="" style="endArrow=none;dashed=1;html=1;dashPattern=1 3;strokeWidth=2;rounded=0;exitX=0.002;exitY=0.353;exitDx=0;exitDy=0;exitPerimeter=0;fillColor=#e51400;strokeColor=#B20000;entryX=0.998;entryY=0.341;entryDx=0;entryDy=0;entryPerimeter=0;" parent="1" edge="1">
          <mxGeometry width="50" height="50" relative="1" as="geometry">
            <mxPoint x="178.19999999999953" y="2361.946" as="sourcePoint" />
            <mxPoint x="526.7999999999997" y="2360.0020000000004" as="targetPoint" />
          </mxGeometry>
        </mxCell>
        <mxCell id="WpjQjEKUPqsohSNB6F_r-64" value="&lt;font style=&quot;font-size: 11px;&quot;&gt;4.b.1.a il&amp;nbsp; compito Ã¨ giÃ  concluso&lt;/font&gt;" style="html=1;labelBackgroundColor=#ffffff;startArrow=none;startFill=0;startSize=6;endArrow=classic;endFill=1;endSize=6;jettySize=auto;orthogonalLoop=1;strokeWidth=1;dashed=1;fontSize=14;rounded=0;" parent="1" edge="1">
          <mxGeometry width="60" height="60" relative="1" as="geometry">
            <mxPoint x="533.3700000000001" y="2370" as="sourcePoint" />
            <mxPoint x="173.37000000000012" y="2370" as="targetPoint" />
          </mxGeometry>
        </mxCell>
        <mxCell id="WpjQjEKUPqsohSNB6F_r-65" value="" style="endArrow=none;dashed=1;html=1;dashPattern=1 3;strokeWidth=2;rounded=0;exitX=0.002;exitY=0.353;exitDx=0;exitDy=0;exitPerimeter=0;fillColor=#e51400;strokeColor=#B20000;entryX=0.998;entryY=0.341;entryDx=0;entryDy=0;entryPerimeter=0;" parent="1" edge="1">
          <mxGeometry width="50" height="50" relative="1" as="geometry">
            <mxPoint x="179.4499999999996" y="2271.446" as="sourcePoint" />
            <mxPoint x="528.0499999999997" y="2269.5020000000004" as="targetPoint" />
          </mxGeometry>
        </mxCell>
        <mxCell id="WpjQjEKUPqsohSNB6F_r-66" value="" style="html=1;labelBackgroundColor=#ffffff;startArrow=none;startFill=0;startSize=6;endArrow=classic;endFill=1;endSize=6;jettySize=auto;orthogonalLoop=1;strokeWidth=1;dashed=1;fontSize=14;rounded=0;" parent="1" edge="1">
          <mxGeometry width="60" height="60" relative="1" as="geometry">
            <mxPoint x="540.55" y="2283.5" as="sourcePoint" />
            <mxPoint x="180.55" y="2283.5" as="targetPoint" />
          </mxGeometry>
        </mxCell>
        <mxCell id="WpjQjEKUPqsohSNB6F_r-67" value="4.a.1.d il compito Ã¨ giÃ  segnato come terminato" style="edgeLabel;html=1;align=center;verticalAlign=middle;resizable=0;points=[];" parent="WpjQjEKUPqsohSNB6F_r-66" connectable="0" vertex="1">
          <mxGeometry x="-0.1099" relative="1" as="geometry">
            <mxPoint x="-20" as="offset" />
          </mxGeometry>
        </mxCell>
        <mxCell id="4vTrjuOk3nkuAjolphQF-1" value="" style="endArrow=none;dashed=1;html=1;dashPattern=1 3;strokeWidth=2;rounded=0;" parent="1" edge="1">
          <mxGeometry width="50" height="50" relative="1" as="geometry">
            <mxPoint x="174" y="2770.941233915441" as="sourcePoint" />
            <mxPoint x="174" y="1640" as="targetPoint" />
          </mxGeometry>
        </mxCell>
        <mxCell id="4vTrjuOk3nkuAjolphQF-2" value="" style="endArrow=none;dashed=1;html=1;dashPattern=1 3;strokeWidth=2;rounded=0;" parent="1" edge="1">
          <mxGeometry width="50" height="50" relative="1" as="geometry">
            <mxPoint x="535" y="2770.941233915441" as="sourcePoint" />
            <mxPoint x="535" y="1640" as="targetPoint" />
          </mxGeometry>
        </mxCell>
        <mxCell id="l1dQwPPjSery7x5fB6_n-2" value="" style="html=1;labelBackgroundColor=#ffffff;startArrow=none;startFill=0;startSize=6;endArrow=classic;endFill=1;endSize=6;jettySize=auto;orthogonalLoop=1;strokeWidth=1;dashed=1;fontSize=14;rounded=0;" parent="1" edge="1">
          <mxGeometry width="60" height="60" relative="1" as="geometry">
            <mxPoint x="540" y="2208" as="sourcePoint" />
            <mxPoint x="180" y="2208" as="targetPoint" />
          </mxGeometry>
        </mxCell>
        <mxCell id="l1dQwPPjSery7x5fB6_n-3" value="4.a.1.a il cuoco non Ã¨ disponibile in quel turno" style="edgeLabel;html=1;align=center;verticalAlign=middle;resizable=0;points=[];" parent="l1dQwPPjSery7x5fB6_n-2" connectable="0" vertex="1">
          <mxGeometry x="-0.1099" relative="1" as="geometry">
            <mxPoint x="-20" as="offset" />
          </mxGeometry>
        </mxCell>
        <mxCell id="l1dQwPPjSery7x5fB6_n-4" value="" style="endArrow=none;dashed=1;html=1;dashPattern=1 3;strokeWidth=2;rounded=0;exitX=0.002;exitY=0.353;exitDx=0;exitDy=0;exitPerimeter=0;fillColor=#e51400;strokeColor=#B20000;entryX=0.998;entryY=0.341;entryDx=0;entryDy=0;entryPerimeter=0;" parent="1" edge="1">
          <mxGeometry width="50" height="50" relative="1" as="geometry">
            <mxPoint x="181.94999999999956" y="2199.946" as="sourcePoint" />
            <mxPoint x="530.5499999999997" y="2198.0020000000004" as="targetPoint" />
          </mxGeometry>
        </mxCell>
      </root>
    </mxGraphModel>
  </diagram>
</mxfile>
